<svg width="427" height="16" viewBox="0 0 427 16" fill="none" xmlns="http://www.w3.org/2000/svg">
<path d="M7.038 15.054C5.862 15.054 4.788 14.772 3.816 14.208C2.856 13.644 2.094 12.876 1.53 11.904C0.978 10.932 0.702 9.864 0.702 8.7C0.702 7.536 0.978 6.468 1.53 5.496C2.094 4.524 2.862 3.756 3.834 3.192C4.806 2.628 5.886 2.346 7.074 2.346C8.262 2.346 9.336 2.622 10.296 3.174C11.268 3.726 12.03 4.488 12.582 5.46C13.134 6.42 13.41 7.488 13.41 8.664C13.41 9.84 13.128 10.92 12.564 11.904C12 12.876 11.232 13.644 10.26 14.208C9.288 14.772 8.214 15.054 7.038 15.054ZM7.038 13.884C7.998 13.884 8.868 13.656 9.648 13.2C10.44 12.732 11.058 12.102 11.502 11.31C11.958 10.506 12.186 9.624 12.186 8.664C12.186 7.692 11.964 6.816 11.52 6.036C11.088 5.256 10.482 4.644 9.702 4.2C8.922 3.744 8.046 3.516 7.074 3.516C6.102 3.516 5.226 3.744 4.446 4.2C3.666 4.656 3.054 5.28 2.61 6.072C2.166 6.864 1.944 7.74 1.944 8.7C1.944 9.66 2.166 10.536 2.61 11.328C3.054 12.12 3.66 12.744 4.428 13.2C5.208 13.656 6.078 13.884 7.038 13.884ZM7.272 12.336C6.54 12.336 5.88 12.18 5.292 11.868C4.716 11.556 4.26 11.124 3.924 10.572C3.6 10.02 3.438 9.396 3.438 8.7C3.438 8.004 3.6 7.38 3.924 6.828C4.26 6.276 4.716 5.844 5.292 5.532C5.88 5.22 6.54 5.064 7.272 5.064C7.98 5.064 8.604 5.22 9.144 5.532C9.684 5.832 10.086 6.246 10.35 6.774L8.73 7.728C8.406 7.164 7.914 6.882 7.254 6.882C6.774 6.882 6.366 7.05 6.03 7.386C5.706 7.71 5.544 8.148 5.544 8.7C5.544 9.252 5.706 9.696 6.03 10.032C6.366 10.356 6.774 10.518 7.254 10.518C7.914 10.518 8.406 10.236 8.73 9.672L10.35 10.608C10.086 11.148 9.684 11.574 9.144 11.886C8.604 12.186 7.98 12.336 7.272 12.336ZM29.3465 12.624V15H19.8245V13.11L24.6845 8.52C25.2005 8.028 25.5485 7.608 25.7285 7.26C25.9085 6.9 25.9985 6.546 25.9985 6.198C25.9985 5.694 25.8245 5.31 25.4765 5.046C25.1405 4.77 24.6425 4.632 23.9825 4.632C23.4305 4.632 22.9325 4.74 22.4885 4.956C22.0445 5.16 21.6725 5.472 21.3725 5.892L19.2485 4.524C19.7405 3.792 20.4185 3.222 21.2825 2.814C22.1465 2.394 23.1365 2.184 24.2525 2.184C25.1885 2.184 26.0045 2.34 26.7005 2.652C27.4085 2.952 27.9545 3.384 28.3385 3.948C28.7345 4.5 28.9325 5.154 28.9325 5.91C28.9325 6.594 28.7885 7.236 28.5005 7.836C28.2125 8.436 27.6545 9.12 26.8265 9.888L23.9285 12.624H29.3465ZM35.9145 15.216C34.8705 15.216 33.9405 14.958 33.1245 14.442C32.3085 13.926 31.6665 13.182 31.1985 12.21C30.7425 11.226 30.5145 10.056 30.5145 8.7C30.5145 7.344 30.7425 6.18 31.1985 5.208C31.6665 4.224 32.3085 3.474 33.1245 2.958C33.9405 2.442 34.8705 2.184 35.9145 2.184C36.9585 2.184 37.8885 2.442 38.7045 2.958C39.5205 3.474 40.1565 4.224 40.6125 5.208C41.0805 6.18 41.3145 7.344 41.3145 8.7C41.3145 10.056 41.0805 11.226 40.6125 12.21C40.1565 13.182 39.5205 13.926 38.7045 14.442C37.8885 14.958 36.9585 15.216 35.9145 15.216ZM35.9145 12.75C36.6825 12.75 37.2825 12.42 37.7145 11.76C38.1585 11.1 38.3805 10.08 38.3805 8.7C38.3805 7.32 38.1585 6.3 37.7145 5.64C37.2825 4.98 36.6825 4.65 35.9145 4.65C35.1585 4.65 34.5585 4.98 34.1145 5.64C33.6825 6.3 33.4665 7.32 33.4665 8.7C33.4665 10.08 33.6825 11.1 34.1145 11.76C34.5585 12.42 35.1585 12.75 35.9145 12.75ZM52.0398 12.624V15H42.5178V13.11L47.3778 8.52C47.8938 8.028 48.2418 7.608 48.4218 7.26C48.6018 6.9 48.6918 6.546 48.6918 6.198C48.6918 5.694 48.5178 5.31 48.1698 5.046C47.8338 4.77 47.3358 4.632 46.6758 4.632C46.1238 4.632 45.6258 4.74 45.1818 4.956C44.7378 5.16 44.3658 5.472 44.0658 5.892L41.9418 4.524C42.4338 3.792 43.1118 3.222 43.9758 2.814C44.8398 2.394 45.8298 2.184 46.9458 2.184C47.8818 2.184 48.6978 2.34 49.3938 2.652C50.1018 2.952 50.6478 3.384 51.0318 3.948C51.4278 4.5 51.6258 5.154 51.6258 5.91C51.6258 6.594 51.4818 7.236 51.1938 7.836C50.9058 8.436 50.3478 9.12 49.5198 9.888L46.6218 12.624H52.0398ZM62.657 12.624V15H53.135V13.11L57.995 8.52C58.511 8.028 58.859 7.608 59.039 7.26C59.219 6.9 59.309 6.546 59.309 6.198C59.309 5.694 59.135 5.31 58.787 5.046C58.451 4.77 57.953 4.632 57.293 4.632C56.741 4.632 56.243 4.74 55.799 4.956C55.355 5.16 54.983 5.472 54.683 5.892L52.559 4.524C53.051 3.792 53.729 3.222 54.593 2.814C55.457 2.394 56.447 2.184 57.563 2.184C58.499 2.184 59.315 2.34 60.011 2.652C60.719 2.952 61.265 3.384 61.649 3.948C62.045 4.5 62.243 5.154 62.243 5.91C62.243 6.594 62.099 7.236 61.811 7.836C61.523 8.436 60.965 9.12 60.137 9.888L57.239 12.624H62.657ZM74.1599 15.144C73.1399 15.144 72.2219 14.934 71.4059 14.514C70.6019 14.082 69.9719 13.488 69.5159 12.732C69.0599 11.976 68.8319 11.118 68.8319 10.158C68.8319 9.198 69.0599 8.34 69.5159 7.584C69.9719 6.828 70.6019 6.24 71.4059 5.82C72.2219 5.388 73.1399 5.172 74.1599 5.172C75.1799 5.172 76.0919 5.388 76.8959 5.82C77.6999 6.24 78.3299 6.828 78.7859 7.584C79.2419 8.34 79.4699 9.198 79.4699 10.158C79.4699 11.118 79.2419 11.976 78.7859 12.732C78.3299 13.488 77.6999 14.082 76.8959 14.514C76.0919 14.934 75.1799 15.144 74.1599 15.144ZM74.1599 12.84C74.8799 12.84 75.4679 12.6 75.9239 12.12C76.3919 11.628 76.6259 10.974 76.6259 10.158C76.6259 9.342 76.3919 8.694 75.9239 8.214C75.4679 7.722 74.8799 7.476 74.1599 7.476C73.4399 7.476 72.8459 7.722 72.3779 8.214C71.9099 8.694 71.6759 9.342 71.6759 10.158C71.6759 10.974 71.9099 11.628 72.3779 12.12C72.8459 12.6 73.4399 12.84 74.1599 12.84ZM93.7488 5.172C94.9608 5.172 95.9208 5.532 96.6288 6.252C97.3488 6.96 97.7088 8.028 97.7088 9.456V15H94.9008V9.888C94.9008 9.12 94.7388 8.55 94.4148 8.178C94.1028 7.794 93.6528 7.602 93.0648 7.602C92.4048 7.602 91.8828 7.818 91.4988 8.25C91.1148 8.67 90.9228 9.3 90.9228 10.14V15H88.1148V9.888C88.1148 8.364 87.5028 7.602 86.2788 7.602C85.6308 7.602 85.1148 7.818 84.7308 8.25C84.3468 8.67 84.1548 9.3 84.1548 10.14V15H81.3468V5.316H84.0288V6.432C84.3888 6.024 84.8268 5.712 85.3428 5.496C85.8708 5.28 86.4468 5.172 87.0708 5.172C87.7548 5.172 88.3728 5.31 88.9248 5.586C89.4768 5.85 89.9208 6.24 90.2568 6.756C90.6528 6.252 91.1508 5.862 91.7508 5.586C92.3628 5.31 93.0288 5.172 93.7488 5.172ZM112.628 5.172C113.84 5.172 114.8 5.532 115.508 6.252C116.228 6.96 116.588 8.028 116.588 9.456V15H113.78V9.888C113.78 9.12 113.618 8.55 113.294 8.178C112.982 7.794 112.532 7.602 111.944 7.602C111.284 7.602 110.762 7.818 110.378 8.25C109.994 8.67 109.802 9.3 109.802 10.14V15H106.994V9.888C106.994 8.364 106.382 7.602 105.158 7.602C104.51 7.602 103.994 7.818 103.61 8.25C103.226 8.67 103.034 9.3 103.034 10.14V15H100.226V5.316H102.908V6.432C103.268 6.024 103.706 5.712 104.222 5.496C104.75 5.28 105.326 5.172 105.95 5.172C106.634 5.172 107.252 5.31 107.804 5.586C108.356 5.85 108.8 6.24 109.136 6.756C109.532 6.252 110.03 5.862 110.63 5.586C111.242 5.31 111.908 5.172 112.628 5.172ZM123.011 5.172C124.511 5.172 125.663 5.532 126.467 6.252C127.271 6.96 127.673 8.034 127.673 9.474V15H125.045V13.794C124.517 14.694 123.533 15.144 122.093 15.144C121.349 15.144 120.701 15.018 120.149 14.766C119.609 14.514 119.195 14.166 118.907 13.722C118.619 13.278 118.475 12.774 118.475 12.21C118.475 11.31 118.811 10.602 119.483 10.086C120.167 9.57 121.217 9.312 122.633 9.312H124.865C124.865 8.7 124.679 8.232 124.307 7.908C123.935 7.572 123.377 7.404 122.633 7.404C122.117 7.404 121.607 7.488 121.103 7.656C120.611 7.812 120.191 8.028 119.843 8.304L118.835 6.342C119.363 5.97 119.993 5.682 120.725 5.478C121.469 5.274 122.231 5.172 123.011 5.172ZM122.795 13.254C123.275 13.254 123.701 13.146 124.073 12.93C124.445 12.702 124.709 12.372 124.865 11.94V10.95H122.939C121.787 10.95 121.211 11.328 121.211 12.084C121.211 12.444 121.349 12.732 121.625 12.948C121.913 13.152 122.303 13.254 122.795 13.254ZM134.952 8.808H140.046V11.058H134.952V8.808ZM153.599 14.532C153.323 14.736 152.981 14.892 152.573 15C152.177 15.096 151.757 15.144 151.313 15.144C150.161 15.144 149.267 14.85 148.631 14.262C148.007 13.674 147.695 12.81 147.695 11.67V7.692H146.201V5.532H147.695V3.174H150.503V5.532H152.915V7.692H150.503V11.634C150.503 12.042 150.605 12.36 150.809 12.588C151.025 12.804 151.325 12.912 151.709 12.912C152.153 12.912 152.531 12.792 152.843 12.552L153.599 14.532ZM159.484 15.144C158.464 15.144 157.546 14.934 156.73 14.514C155.926 14.082 155.296 13.488 154.84 12.732C154.384 11.976 154.156 11.118 154.156 10.158C154.156 9.198 154.384 8.34 154.84 7.584C155.296 6.828 155.926 6.24 156.73 5.82C157.546 5.388 158.464 5.172 159.484 5.172C160.504 5.172 161.416 5.388 162.22 5.82C163.024 6.24 163.654 6.828 164.11 7.584C164.566 8.34 164.794 9.198 164.794 10.158C164.794 11.118 164.566 11.976 164.11 12.732C163.654 13.488 163.024 14.082 162.22 14.514C161.416 14.934 160.504 15.144 159.484 15.144ZM159.484 12.84C160.204 12.84 160.792 12.6 161.248 12.12C161.716 11.628 161.95 10.974 161.95 10.158C161.95 9.342 161.716 8.694 161.248 8.214C160.792 7.722 160.204 7.476 159.484 7.476C158.764 7.476 158.17 7.722 157.702 8.214C157.234 8.694 157 9.342 157 10.158C157 10.974 157.234 11.628 157.702 12.12C158.17 12.6 158.764 12.84 159.484 12.84ZM176.535 1.644V15H173.853V13.884C173.157 14.724 172.149 15.144 170.829 15.144C169.917 15.144 169.089 14.94 168.345 14.532C167.613 14.124 167.037 13.542 166.617 12.786C166.197 12.03 165.987 11.154 165.987 10.158C165.987 9.162 166.197 8.286 166.617 7.53C167.037 6.774 167.613 6.192 168.345 5.784C169.089 5.376 169.917 5.172 170.829 5.172C172.065 5.172 173.031 5.562 173.727 6.342V1.644H176.535ZM171.315 12.84C172.023 12.84 172.611 12.6 173.079 12.12C173.547 11.628 173.781 10.974 173.781 10.158C173.781 9.342 173.547 8.694 173.079 8.214C172.611 7.722 172.023 7.476 171.315 7.476C170.595 7.476 170.001 7.722 169.533 8.214C169.065 8.694 168.831 9.342 168.831 10.158C168.831 10.974 169.065 11.628 169.533 12.12C170.001 12.6 170.595 12.84 171.315 12.84ZM183.742 15.144C182.722 15.144 181.804 14.934 180.988 14.514C180.184 14.082 179.554 13.488 179.098 12.732C178.642 11.976 178.414 11.118 178.414 10.158C178.414 9.198 178.642 8.34 179.098 7.584C179.554 6.828 180.184 6.24 180.988 5.82C181.804 5.388 182.722 5.172 183.742 5.172C184.762 5.172 185.674 5.388 186.478 5.82C187.282 6.24 187.912 6.828 188.368 7.584C188.824 8.34 189.052 9.198 189.052 10.158C189.052 11.118 188.824 11.976 188.368 12.732C187.912 13.488 187.282 14.082 186.478 14.514C185.674 14.934 184.762 15.144 183.742 15.144ZM183.742 12.84C184.462 12.84 185.05 12.6 185.506 12.12C185.974 11.628 186.208 10.974 186.208 10.158C186.208 9.342 185.974 8.694 185.506 8.214C185.05 7.722 184.462 7.476 183.742 7.476C183.022 7.476 182.428 7.722 181.96 8.214C181.492 8.694 181.258 9.342 181.258 10.158C181.258 10.974 181.492 11.628 181.96 12.12C182.428 12.6 183.022 12.84 183.742 12.84ZM194.187 15.144C193.383 15.144 192.597 15.048 191.829 14.856C191.061 14.652 190.449 14.4 189.993 14.1L190.929 12.084C191.361 12.36 191.883 12.588 192.495 12.768C193.107 12.936 193.707 13.02 194.295 13.02C195.483 13.02 196.077 12.726 196.077 12.138C196.077 11.862 195.915 11.664 195.591 11.544C195.267 11.424 194.769 11.322 194.097 11.238C193.305 11.118 192.651 10.98 192.135 10.824C191.619 10.668 191.169 10.392 190.785 9.996C190.413 9.6 190.227 9.036 190.227 8.304C190.227 7.692 190.401 7.152 190.749 6.684C191.109 6.204 191.625 5.832 192.297 5.568C192.981 5.304 193.785 5.172 194.709 5.172C195.393 5.172 196.071 5.25 196.743 5.406C197.427 5.55 197.991 5.754 198.435 6.018L197.499 8.016C196.647 7.536 195.717 7.296 194.709 7.296C194.109 7.296 193.659 7.38 193.359 7.548C193.059 7.716 192.909 7.932 192.909 8.196C192.909 8.496 193.071 8.706 193.395 8.826C193.719 8.946 194.235 9.06 194.943 9.168C195.735 9.3 196.383 9.444 196.887 9.6C197.391 9.744 197.829 10.014 198.201 10.41C198.573 10.806 198.759 11.358 198.759 12.066C198.759 12.666 198.579 13.2 198.219 13.668C197.859 14.136 197.331 14.502 196.635 14.766C195.951 15.018 195.135 15.144 194.187 15.144ZM210.197 15.144C209.177 15.144 208.259 14.934 207.443 14.514C206.639 14.082 206.009 13.488 205.553 12.732C205.097 11.976 204.869 11.118 204.869 10.158C204.869 9.198 205.097 8.34 205.553 7.584C206.009 6.828 206.639 6.24 207.443 5.82C208.259 5.388 209.177 5.172 210.197 5.172C211.217 5.172 212.129 5.388 212.933 5.82C213.737 6.24 214.367 6.828 214.823 7.584C215.279 8.34 215.507 9.198 215.507 10.158C215.507 11.118 215.279 11.976 214.823 12.732C214.367 13.488 213.737 14.082 212.933 14.514C212.129 14.934 211.217 15.144 210.197 15.144ZM210.197 12.84C210.917 12.84 211.505 12.6 211.961 12.12C212.429 11.628 212.663 10.974 212.663 10.158C212.663 9.342 212.429 8.694 211.961 8.214C211.505 7.722 210.917 7.476 210.197 7.476C209.477 7.476 208.883 7.722 208.415 8.214C207.947 8.694 207.713 9.342 207.713 10.158C207.713 10.974 207.947 11.628 208.415 12.12C208.883 12.6 209.477 12.84 210.197 12.84ZM220.642 15.144C219.838 15.144 219.052 15.048 218.284 14.856C217.516 14.652 216.904 14.4 216.448 14.1L217.384 12.084C217.816 12.36 218.338 12.588 218.95 12.768C219.562 12.936 220.162 13.02 220.75 13.02C221.938 13.02 222.532 12.726 222.532 12.138C222.532 11.862 222.37 11.664 222.046 11.544C221.722 11.424 221.224 11.322 220.552 11.238C219.76 11.118 219.106 10.98 218.59 10.824C218.074 10.668 217.624 10.392 217.24 9.996C216.868 9.6 216.682 9.036 216.682 8.304C216.682 7.692 216.856 7.152 217.204 6.684C217.564 6.204 218.08 5.832 218.752 5.568C219.436 5.304 220.24 5.172 221.164 5.172C221.848 5.172 222.526 5.25 223.198 5.406C223.882 5.55 224.446 5.754 224.89 6.018L223.954 8.016C223.102 7.536 222.172 7.296 221.164 7.296C220.564 7.296 220.114 7.38 219.814 7.548C219.514 7.716 219.364 7.932 219.364 8.196C219.364 8.496 219.526 8.706 219.85 8.826C220.174 8.946 220.69 9.06 221.398 9.168C222.19 9.3 222.838 9.444 223.342 9.6C223.846 9.744 224.284 10.014 224.656 10.41C225.028 10.806 225.214 11.358 225.214 12.066C225.214 12.666 225.034 13.2 224.674 13.668C224.314 14.136 223.786 14.502 223.09 14.766C222.406 15.018 221.59 15.144 220.642 15.144ZM241.908 1.644V15H239.226V13.884C238.53 14.724 237.522 15.144 236.202 15.144C235.29 15.144 234.462 14.94 233.718 14.532C232.986 14.124 232.41 13.542 231.99 12.786C231.57 12.03 231.36 11.154 231.36 10.158C231.36 9.162 231.57 8.286 231.99 7.53C232.41 6.774 232.986 6.192 233.718 5.784C234.462 5.376 235.29 5.172 236.202 5.172C237.438 5.172 238.404 5.562 239.1 6.342V1.644H241.908ZM236.688 12.84C237.396 12.84 237.984 12.6 238.452 12.12C238.92 11.628 239.154 10.974 239.154 10.158C239.154 9.342 238.92 8.694 238.452 8.214C237.984 7.722 237.396 7.476 236.688 7.476C235.968 7.476 235.374 7.722 234.906 8.214C234.438 8.694 234.204 9.342 234.204 10.158C234.204 10.974 234.438 11.628 234.906 12.12C235.374 12.6 235.968 12.84 236.688 12.84ZM244.507 5.316H247.315V15H244.507V5.316ZM245.911 3.966C245.395 3.966 244.975 3.816 244.651 3.516C244.327 3.216 244.165 2.844 244.165 2.4C244.165 1.956 244.327 1.584 244.651 1.284C244.975 0.983999 245.395 0.833999 245.911 0.833999C246.427 0.833999 246.847 0.977999 247.171 1.266C247.495 1.554 247.657 1.914 247.657 2.346C247.657 2.814 247.495 3.204 247.171 3.516C246.847 3.816 246.427 3.966 245.911 3.966ZM252.603 6.594C252.939 6.126 253.389 5.772 253.953 5.532C254.529 5.292 255.189 5.172 255.933 5.172V7.764C255.621 7.74 255.411 7.728 255.303 7.728C254.499 7.728 253.869 7.956 253.413 8.412C252.957 8.856 252.729 9.528 252.729 10.428V15H249.921V5.316H252.603V6.594ZM267.001 10.194C267.001 10.23 266.983 10.482 266.947 10.95H259.621C259.753 11.55 260.065 12.024 260.557 12.372C261.049 12.72 261.661 12.894 262.393 12.894C262.897 12.894 263.341 12.822 263.725 12.678C264.121 12.522 264.487 12.282 264.823 11.958L266.317 13.578C265.405 14.622 264.073 15.144 262.321 15.144C261.229 15.144 260.263 14.934 259.423 14.514C258.583 14.082 257.935 13.488 257.479 12.732C257.023 11.976 256.795 11.118 256.795 10.158C256.795 9.21 257.017 8.358 257.461 7.602C257.917 6.834 258.535 6.24 259.315 5.82C260.107 5.388 260.989 5.172 261.961 5.172C262.909 5.172 263.767 5.376 264.535 5.784C265.303 6.192 265.903 6.78 266.335 7.548C266.779 8.304 267.001 9.186 267.001 10.194ZM261.979 7.296C261.343 7.296 260.809 7.476 260.377 7.836C259.945 8.196 259.681 8.688 259.585 9.312H264.355C264.259 8.7 263.995 8.214 263.563 7.854C263.131 7.482 262.603 7.296 261.979 7.296ZM268.87 5.316H271.678V15H268.87V5.316ZM270.274 3.966C269.758 3.966 269.338 3.816 269.014 3.516C268.69 3.216 268.528 2.844 268.528 2.4C268.528 1.956 268.69 1.584 269.014 1.284C269.338 0.983999 269.758 0.833999 270.274 0.833999C270.79 0.833999 271.21 0.977999 271.534 1.266C271.858 1.554 272.02 1.914 272.02 2.346C272.02 2.814 271.858 3.204 271.534 3.516C271.21 3.816 270.79 3.966 270.274 3.966ZM280.53 14.532C280.254 14.736 279.912 14.892 279.504 15C279.108 15.096 278.688 15.144 278.244 15.144C277.092 15.144 276.198 14.85 275.562 14.262C274.938 13.674 274.626 12.81 274.626 11.67V7.692H273.132V5.532H274.626V3.174H277.434V5.532H279.846V7.692H277.434V11.634C277.434 12.042 277.536 12.36 277.74 12.588C277.956 12.804 278.256 12.912 278.64 12.912C279.084 12.912 279.462 12.792 279.774 12.552L280.53 14.532ZM286.416 15.144C285.396 15.144 284.478 14.934 283.662 14.514C282.858 14.082 282.228 13.488 281.772 12.732C281.316 11.976 281.088 11.118 281.088 10.158C281.088 9.198 281.316 8.34 281.772 7.584C282.228 6.828 282.858 6.24 283.662 5.82C284.478 5.388 285.396 5.172 286.416 5.172C287.436 5.172 288.348 5.388 289.152 5.82C289.956 6.24 290.586 6.828 291.042 7.584C291.498 8.34 291.726 9.198 291.726 10.158C291.726 11.118 291.498 11.976 291.042 12.732C290.586 13.488 289.956 14.082 289.152 14.514C288.348 14.934 287.436 15.144 286.416 15.144ZM286.416 12.84C287.136 12.84 287.724 12.6 288.18 12.12C288.648 11.628 288.882 10.974 288.882 10.158C288.882 9.342 288.648 8.694 288.18 8.214C287.724 7.722 287.136 7.476 286.416 7.476C285.696 7.476 285.102 7.722 284.634 8.214C284.166 8.694 283.932 9.342 283.932 10.158C283.932 10.974 284.166 11.628 284.634 12.12C285.102 12.6 285.696 12.84 286.416 12.84ZM296.861 15.144C296.057 15.144 295.271 15.048 294.503 14.856C293.735 14.652 293.123 14.4 292.667 14.1L293.603 12.084C294.035 12.36 294.557 12.588 295.169 12.768C295.781 12.936 296.381 13.02 296.969 13.02C298.157 13.02 298.751 12.726 298.751 12.138C298.751 11.862 298.589 11.664 298.265 11.544C297.941 11.424 297.443 11.322 296.771 11.238C295.979 11.118 295.325 10.98 294.809 10.824C294.293 10.668 293.843 10.392 293.459 9.996C293.087 9.6 292.901 9.036 292.901 8.304C292.901 7.692 293.075 7.152 293.423 6.684C293.783 6.204 294.299 5.832 294.971 5.568C295.655 5.304 296.459 5.172 297.383 5.172C298.067 5.172 298.745 5.25 299.417 5.406C300.101 5.55 300.665 5.754 301.109 6.018L300.173 8.016C299.321 7.536 298.391 7.296 297.383 7.296C296.783 7.296 296.333 7.38 296.033 7.548C295.733 7.716 295.583 7.932 295.583 8.196C295.583 8.496 295.745 8.706 296.069 8.826C296.393 8.946 296.909 9.06 297.617 9.168C298.409 9.3 299.057 9.444 299.561 9.6C300.065 9.744 300.503 10.014 300.875 10.41C301.247 10.806 301.433 11.358 301.433 12.066C301.433 12.666 301.253 13.2 300.893 13.668C300.533 14.136 300.005 14.502 299.309 14.766C298.625 15.018 297.809 15.144 296.861 15.144ZM311.521 15.144C310.717 15.144 309.931 15.048 309.163 14.856C308.395 14.652 307.783 14.4 307.327 14.1L308.263 12.084C308.695 12.36 309.217 12.588 309.829 12.768C310.441 12.936 311.041 13.02 311.629 13.02C312.817 13.02 313.411 12.726 313.411 12.138C313.411 11.862 313.249 11.664 312.925 11.544C312.601 11.424 312.103 11.322 311.431 11.238C310.639 11.118 309.985 10.98 309.469 10.824C308.953 10.668 308.503 10.392 308.119 9.996C307.747 9.6 307.561 9.036 307.561 8.304C307.561 7.692 307.735 7.152 308.083 6.684C308.443 6.204 308.959 5.832 309.631 5.568C310.315 5.304 311.119 5.172 312.043 5.172C312.727 5.172 313.405 5.25 314.077 5.406C314.761 5.55 315.325 5.754 315.769 6.018L314.833 8.016C313.981 7.536 313.051 7.296 312.043 7.296C311.443 7.296 310.993 7.38 310.693 7.548C310.393 7.716 310.243 7.932 310.243 8.196C310.243 8.496 310.405 8.706 310.729 8.826C311.053 8.946 311.569 9.06 312.277 9.168C313.069 9.3 313.717 9.444 314.221 9.6C314.725 9.744 315.163 10.014 315.535 10.41C315.907 10.806 316.093 11.358 316.093 12.066C316.093 12.666 315.913 13.2 315.553 13.668C315.193 14.136 314.665 14.502 313.969 14.766C313.285 15.018 312.469 15.144 311.521 15.144ZM321.731 5.172C323.231 5.172 324.383 5.532 325.187 6.252C325.991 6.96 326.393 8.034 326.393 9.474V15H323.765V13.794C323.237 14.694 322.253 15.144 320.813 15.144C320.069 15.144 319.421 15.018 318.869 14.766C318.329 14.514 317.915 14.166 317.627 13.722C317.339 13.278 317.195 12.774 317.195 12.21C317.195 11.31 317.531 10.602 318.203 10.086C318.887 9.57 319.937 9.312 321.353 9.312H323.585C323.585 8.7 323.399 8.232 323.027 7.908C322.655 7.572 322.097 7.404 321.353 7.404C320.837 7.404 320.327 7.488 319.823 7.656C319.331 7.812 318.911 8.028 318.563 8.304L317.555 6.342C318.083 5.97 318.713 5.682 319.445 5.478C320.189 5.274 320.951 5.172 321.731 5.172ZM321.515 13.254C321.995 13.254 322.421 13.146 322.793 12.93C323.165 12.702 323.429 12.372 323.585 11.94V10.95H321.659C320.507 10.95 319.931 11.328 319.931 12.084C319.931 12.444 320.069 12.732 320.345 12.948C320.633 13.152 321.023 13.254 321.515 13.254ZM323.369 4.128C323.045 4.128 322.757 4.068 322.505 3.948C322.265 3.816 321.995 3.642 321.695 3.426C321.503 3.282 321.341 3.174 321.209 3.102C321.089 3.03 320.969 2.994 320.849 2.994C320.597 2.994 320.393 3.084 320.237 3.264C320.081 3.432 319.997 3.678 319.985 4.002H318.563C318.587 3.198 318.785 2.562 319.157 2.094C319.541 1.614 320.045 1.374 320.669 1.374C320.981 1.374 321.257 1.44 321.497 1.572C321.749 1.692 322.031 1.866 322.343 2.094C322.535 2.238 322.691 2.346 322.811 2.418C322.943 2.49 323.069 2.526 323.189 2.526C323.429 2.526 323.627 2.442 323.783 2.274C323.951 2.094 324.041 1.854 324.053 1.554H325.475C325.451 2.334 325.247 2.958 324.863 3.426C324.491 3.894 323.993 4.128 323.369 4.128ZM333.648 15.144C332.628 15.144 331.71 14.934 330.894 14.514C330.09 14.082 329.46 13.488 329.004 12.732C328.548 11.976 328.32 11.118 328.32 10.158C328.32 9.198 328.548 8.34 329.004 7.584C329.46 6.828 330.09 6.24 330.894 5.82C331.71 5.388 332.628 5.172 333.648 5.172C334.668 5.172 335.58 5.388 336.384 5.82C337.188 6.24 337.818 6.828 338.274 7.584C338.73 8.34 338.958 9.198 338.958 10.158C338.958 11.118 338.73 11.976 338.274 12.732C337.818 13.488 337.188 14.082 336.384 14.514C335.58 14.934 334.668 15.144 333.648 15.144ZM333.648 12.84C334.368 12.84 334.956 12.6 335.412 12.12C335.88 11.628 336.114 10.974 336.114 10.158C336.114 9.342 335.88 8.694 335.412 8.214C334.956 7.722 334.368 7.476 333.648 7.476C332.928 7.476 332.334 7.722 331.866 8.214C331.398 8.694 331.164 9.342 331.164 10.158C331.164 10.974 331.398 11.628 331.866 12.12C332.334 12.6 332.928 12.84 333.648 12.84ZM355.797 1.644V15H353.115V13.884C352.419 14.724 351.411 15.144 350.091 15.144C349.179 15.144 348.351 14.94 347.607 14.532C346.875 14.124 346.299 13.542 345.879 12.786C345.459 12.03 345.249 11.154 345.249 10.158C345.249 9.162 345.459 8.286 345.879 7.53C346.299 6.774 346.875 6.192 347.607 5.784C348.351 5.376 349.179 5.172 350.091 5.172C351.327 5.172 352.293 5.562 352.989 6.342V1.644H355.797ZM350.577 12.84C351.285 12.84 351.873 12.6 352.341 12.12C352.809 11.628 353.043 10.974 353.043 10.158C353.043 9.342 352.809 8.694 352.341 8.214C351.873 7.722 351.285 7.476 350.577 7.476C349.857 7.476 349.263 7.722 348.795 8.214C348.327 8.694 348.093 9.342 348.093 10.158C348.093 10.974 348.327 11.628 348.795 12.12C349.263 12.6 349.857 12.84 350.577 12.84ZM367.882 10.194C367.882 10.23 367.864 10.482 367.828 10.95H360.502C360.634 11.55 360.946 12.024 361.438 12.372C361.93 12.72 362.542 12.894 363.274 12.894C363.778 12.894 364.222 12.822 364.606 12.678C365.002 12.522 365.368 12.282 365.704 11.958L367.198 13.578C366.286 14.622 364.954 15.144 363.202 15.144C362.11 15.144 361.144 14.934 360.304 14.514C359.464 14.082 358.816 13.488 358.36 12.732C357.904 11.976 357.676 11.118 357.676 10.158C357.676 9.21 357.898 8.358 358.342 7.602C358.798 6.834 359.416 6.24 360.196 5.82C360.988 5.388 361.87 5.172 362.842 5.172C363.79 5.172 364.648 5.376 365.416 5.784C366.184 6.192 366.784 6.78 367.216 7.548C367.66 8.304 367.882 9.186 367.882 10.194ZM362.86 7.296C362.224 7.296 361.69 7.476 361.258 7.836C360.826 8.196 360.562 8.688 360.466 9.312H365.236C365.14 8.7 364.876 8.214 364.444 7.854C364.012 7.482 363.484 7.296 362.86 7.296ZM384.461 5.316L380.375 15H377.477L373.409 5.316H376.307L378.989 11.904L381.761 5.316H384.461ZM389.951 15.144C388.931 15.144 388.013 14.934 387.197 14.514C386.393 14.082 385.763 13.488 385.307 12.732C384.851 11.976 384.623 11.118 384.623 10.158C384.623 9.198 384.851 8.34 385.307 7.584C385.763 6.828 386.393 6.24 387.197 5.82C388.013 5.388 388.931 5.172 389.951 5.172C390.971 5.172 391.883 5.388 392.687 5.82C393.491 6.24 394.121 6.828 394.577 7.584C395.033 8.34 395.261 9.198 395.261 10.158C395.261 11.118 395.033 11.976 394.577 12.732C394.121 13.488 393.491 14.082 392.687 14.514C391.883 14.934 390.971 15.144 389.951 15.144ZM389.951 12.84C390.671 12.84 391.259 12.6 391.715 12.12C392.183 11.628 392.417 10.974 392.417 10.158C392.417 9.342 392.183 8.694 391.715 8.214C391.259 7.722 390.671 7.476 389.951 7.476C389.231 7.476 388.637 7.722 388.169 8.214C387.701 8.694 387.467 9.342 387.467 10.158C387.467 10.974 387.701 11.628 388.169 12.12C388.637 12.6 389.231 12.84 389.951 12.84ZM401.818 15.144C400.786 15.144 399.856 14.934 399.028 14.514C398.212 14.082 397.57 13.488 397.102 12.732C396.646 11.976 396.418 11.118 396.418 10.158C396.418 9.198 396.646 8.34 397.102 7.584C397.57 6.828 398.212 6.24 399.028 5.82C399.856 5.388 400.786 5.172 401.818 5.172C402.838 5.172 403.726 5.388 404.482 5.82C405.25 6.24 405.808 6.846 406.156 7.638L403.978 8.808C403.474 7.92 402.748 7.476 401.8 7.476C401.068 7.476 400.462 7.716 399.982 8.196C399.502 8.676 399.262 9.33 399.262 10.158C399.262 10.986 399.502 11.64 399.982 12.12C400.462 12.6 401.068 12.84 401.8 12.84C402.76 12.84 403.486 12.396 403.978 11.508L406.156 12.696C405.808 13.464 405.25 14.064 404.482 14.496C403.726 14.928 402.838 15.144 401.818 15.144ZM417.136 10.194C417.136 10.23 417.118 10.482 417.082 10.95H409.756C409.888 11.55 410.2 12.024 410.692 12.372C411.184 12.72 411.796 12.894 412.528 12.894C413.032 12.894 413.476 12.822 413.86 12.678C414.256 12.522 414.622 12.282 414.958 11.958L416.452 13.578C415.54 14.622 414.208 15.144 412.456 15.144C411.364 15.144 410.398 14.934 409.558 14.514C408.718 14.082 408.07 13.488 407.614 12.732C407.158 11.976 406.93 11.118 406.93 10.158C406.93 9.21 407.152 8.358 407.596 7.602C408.052 6.834 408.67 6.24 409.45 5.82C410.242 5.388 411.124 5.172 412.096 5.172C413.044 5.172 413.902 5.376 414.67 5.784C415.438 6.192 416.038 6.78 416.47 7.548C416.914 8.304 417.136 9.186 417.136 10.194ZM412.114 7.296C411.478 7.296 410.944 7.476 410.512 7.836C410.08 8.196 409.816 8.688 409.72 9.312H414.49C414.394 8.7 414.13 8.214 413.698 7.854C413.266 7.482 412.738 7.296 412.114 7.296ZM413.608 4.074L412.042 2.706L410.476 4.074H408.424L410.8 1.482H413.284L415.66 4.074H413.608ZM422.263 15.144C421.459 15.144 420.673 15.048 419.905 14.856C419.137 14.652 418.525 14.4 418.069 14.1L419.005 12.084C419.437 12.36 419.959 12.588 420.571 12.768C421.183 12.936 421.783 13.02 422.371 13.02C423.559 13.02 424.153 12.726 424.153 12.138C424.153 11.862 423.991 11.664 423.667 11.544C423.343 11.424 422.845 11.322 422.173 11.238C421.381 11.118 420.727 10.98 420.211 10.824C419.695 10.668 419.245 10.392 418.861 9.996C418.489 9.6 418.303 9.036 418.303 8.304C418.303 7.692 418.477 7.152 418.825 6.684C419.185 6.204 419.701 5.832 420.373 5.568C421.057 5.304 421.861 5.172 422.785 5.172C423.469 5.172 424.147 5.25 424.819 5.406C425.503 5.55 426.067 5.754 426.511 6.018L425.575 8.016C424.723 7.536 423.793 7.296 422.785 7.296C422.185 7.296 421.735 7.38 421.435 7.548C421.135 7.716 420.985 7.932 420.985 8.196C420.985 8.496 421.147 8.706 421.471 8.826C421.795 8.946 422.311 9.06 423.019 9.168C423.811 9.3 424.459 9.444 424.963 9.6C425.467 9.744 425.905 10.014 426.277 10.41C426.649 10.806 426.835 11.358 426.835 12.066C426.835 12.666 426.655 13.2 426.295 13.668C425.935 14.136 425.407 14.502 424.711 14.766C424.027 15.018 423.211 15.144 422.263 15.144Z" fill="white"/>
</svg>
